<?xml version="1.0" standalone="no"?><!DOCTYPE svg PUBLIC "-//W3C//DTD SVG 1.1//EN" "http://www.w3.org/Graphics/SVG/1.1/DTD/svg11.dtd"><svg t="1667028959682" class="icon" viewBox="0 0 1024 1024" version="1.1" xmlns="http://www.w3.org/2000/svg" p-id="1416" xmlns:xlink="http://www.w3.org/1999/xlink" width="200" height="200"><path d="M1017.6 966.4l-217.6-217.6c64-70.4 102.4-166.4 102.4-268.8C896 249.6 710.4 64 480 64S64 249.6 64 480 249.6 896 480 896c102.4 0 198.4-38.4 268.8-102.4l217.6 217.6c6.4 6.4 12.8 6.4 25.6 6.4s19.2 0 25.6-6.4c6.4-6.4 6.4-32 0-44.8zM480 832C288 832 128 672 128 480S288 128 480 128 832 288 832 480 672 832 480 832z" p-id="1417" fill="#ffffff"></path></svg>